HIERARCHY
ROOT hip
{
	OFFSET 0.000000 0.000000 0.000000 
	CHANNELS 6 Xposition Yposition Zposition Xrotation Zrotation Yrotation
	JOINT abdomen
	{
		OFFSET 0.000000 3.402643 0.000000 
		CHANNELS 3 Xrotation Zrotation Yrotation
		JOINT chest
		{
			OFFSET 0.000000 8.438565 -0.680529 
			CHANNELS 3 Xrotation Zrotation Yrotation
			JOINT neck
			{
				OFFSET 0.000000 10.207942 -0.272212 
				CHANNELS 3 Xrotation Zrotation Yrotation
				JOINT head
				{
					OFFSET 0.000000 3.130431 0.000000 
					CHANNELS 3 Xrotation Zrotation Yrotation
					End Site
					{
						OFFSET 0.000000 3.130435 0.000000 
					}
				}
			}
			JOINT lCollar
			{
				OFFSET 3.470700 6.669187 -0.816635 
				CHANNELS 3 Yrotation Zrotation Xrotation
				JOINT lShldr
				{
					OFFSET 3.198488 0.000000 0.000000 
					CHANNELS 3 Zrotation Yrotation Xrotation
					JOINT lForeArm
					{
						OFFSET 10.139888 0.000000 0.000000 
						CHANNELS 3 Yrotation Zrotation Xrotation
						JOINT lHand
						{
							OFFSET 8.370511 0.000000 0.000000 
							CHANNELS 3 Zrotation Yrotation Xrotation
							End Site
							{
								OFFSET 4.083176 0.000000 0.000000 
							}
						}
					}
				}
			}
			JOINT rCollar
			{
				OFFSET -3.470700 6.669187 -0.816635 
				CHANNELS 3 Yrotation Zrotation Xrotation
				JOINT rShldr
				{
					OFFSET -3.198488 0.000000 0.000000 
					CHANNELS 3 Zrotation Yrotation Xrotation
					JOINT rForeArm
					{
						OFFSET -10.139888 0.000000 0.000000 
						CHANNELS 3 Yrotation Zrotation Xrotation
						JOINT rHand
						{
							OFFSET -8.370511 0.000000 0.000000 
							CHANNELS 3 Zrotation Yrotation Xrotation
							End Site
							{
								OFFSET -4.083176 0.000000 0.000000 
							}
						}
					}
				}
			}
		}
	}
	JOINT lThigh
	{
		OFFSET 5.308129 -1.633274 1.361059 
		CHANNELS 3 Xrotation Zrotation Yrotation
		JOINT lShin
		{
			OFFSET -2.041588 -20.007561 0.000000 
			CHANNELS 3 Xrotation Zrotation Yrotation
			JOINT lFoot
			{
				OFFSET 0.000000 -19.190928 -1.224953 
				CHANNELS 3 Xrotation Yrotation Zrotation
				End Site
				{
					OFFSET 0.000000 -2.449906 4.627600 
				}
			}
		}
	}
	JOINT rThigh
	{
		OFFSET -5.308129 -1.633274 1.361059 
		CHANNELS 3 Xrotation Zrotation Yrotation
		JOINT rShin
		{
			OFFSET 2.041588 -20.007561 0.000000 
			CHANNELS 3 Xrotation Zrotation Yrotation
			JOINT rFoot
			{
				OFFSET 0.000000 -19.190928 -1.224953 
				CHANNELS 3 Xrotation Yrotation Zrotation
				End Site
				{
					OFFSET 0.000000 -2.449906 4.627600 
				}
			}
		}
	}
}
MOTION
Frames: 8
Frame Time: 0.011111
9.400448 48.703354 -1.035754 2.438477 7.659204 -23.261112 24.803024 -7.456014 20.853811 -32.890190 -3.830152 6.558689 -8.661828 -4.038492 1.253782 2.587950 8.401768 1.805501 -10.275489 -5.709454 -1.550532 -40.845951 -12.991450 -41.881752 -94.897789 8.579181 37.908291 8.524705 12.647240 5.250597 5.831508 6.350754 -0.460990 49.947624 24.248940 43.238041 79.125893 -6.883767 21.947647 -8.534408 -12.637552 26.761580 -18.240143 -6.845172 -2.194213 53.571445 -3.447217 -7.570547 -34.298664 -12.005201 -9.260110 -41.028629 -23.707981 5.685934 71.876572 1.270788 9.000073 -22.360218 -7.514088 -0.287290 
8.288398 48.834679 -0.826443 3.523921 8.166413 -19.057795 24.113565 -7.737466 20.465887 -32.685078 -3.685032 6.481535 -8.791744 -2.074113 2.679592 2.269079 4.809789 5.152469 -10.275489 -5.709454 -1.550532 -41.371304 -13.774955 -41.440807 -94.351097 8.341290 37.625797 8.524705 12.647240 1.949816 5.831508 6.350754 -0.460990 50.348972 24.296013 44.363861 79.785385 -6.592248 22.349560 -8.534408 -12.637552 27.035013 -18.457850 -6.510283 -4.288125 52.688652 -3.535421 -7.490835 -33.579388 -13.429689 -10.217081 -42.264164 -24.872421 9.853700 67.190132 1.866502 8.686190 -25.319813 -9.371727 -1.686853 
7.096671 49.019684 -0.603627 4.179965 8.273978 -14.661397 24.059582 -8.090726 20.126337 -32.646397 -3.646569 6.433508 -8.872454 -1.469435 3.721359 1.926323 3.453592 7.353170 -10.275489 -5.709454 -1.550532 -41.901314 -14.570030 -40.594028 -94.050934 8.204656 37.468578 8.524705 12.647240 -1.790419 5.831508 6.350754 -0.460990 50.757050 23.862909 45.819817 80.667595 -6.157359 22.903694 -8.534408 -12.637552 28.187355 -18.004253 -5.828911 -6.556579 51.510906 -3.662212 -7.373758 -32.638382 -15.132083 -11.293664 -41.521786 -26.190847 13.541051 61.636517 2.530737 8.273276 -27.902958 -10.719698 -2.983110 
5.830675 49.251278 -0.362582 4.858469 8.354258 -10.062490 23.931620 -8.765393 19.814592 -32.744545 -3.724003 6.443141 -8.567364 -1.244658 4.215821 1.122816 3.148472 8.387584 -10.275489 -5.709454 -1.550532 -42.319271 -15.342089 -39.250099 -93.894768 8.134186 37.380241 8.524705 12.647240 -5.970106 5.831508 6.350754 -0.460990 51.564262 23.084759 46.959816 81.499283 -5.701075 23.460207 -8.534408 -12.637552 29.271343 -17.574627 -4.940446 -8.936781 50.106838 -3.798706 -7.229992 -31.614975 -16.969091 -12.389497 -39.927891 -27.694048 16.718719 55.601574 3.187026 7.745216 -30.159830 -11.846348 -4.231482 
4.516402 49.491310 -0.064482 5.424210 8.251116 -5.525558 23.862368 -9.350362 19.549829 -32.695251 -3.652141 6.428323 -8.510102 -1.409232 4.393950 0.725966 2.985433 8.683078 -10.275489 -5.709454 -1.550532 -43.272408 -16.066170 -38.058697 -93.915337 8.141944 37.391193 8.524705 12.647240 -10.061903 5.831508 6.350754 -0.460990 52.408665 23.086475 48.063354 81.778221 -5.534166 23.649490 -8.534408 -12.637552 29.466656 -17.131117 -3.795657 -11.418084 48.564686 -3.935366 -7.062875 -30.633354 -18.785868 -13.390100 -37.402397 -29.117941 20.017384 49.235046 3.850010 7.101675 -31.283905 -13.471685 -5.377194 
3.149462 49.753624 0.262315 5.819950 7.622144 -1.119740 24.069580 -9.377431 19.364500 -32.527599 -3.362573 6.364896 -8.911201 -1.943255 4.511676 0.869009 2.938271 8.716378 -10.275489 -5.709454 -1.550532 -44.788509 -16.740612 -37.335232 -94.050934 8.204656 37.468578 8.524705 12.647240 -13.372450 5.831508 6.350754 -0.460990 52.689877 23.535610 50.205673 81.900444 -5.460649 23.731419 -8.534408 -12.637552 30.501812 -16.779995 -1.921335 -13.517824 46.912594 -4.081863 -6.886288 -29.667248 -20.687187 -14.395075 -34.077309 -29.773827 22.577150 43.152187 4.371265 6.454653 -32.564560 -14.810939 -6.479895 
1.753152 49.964283 0.613418 6.145450 6.434457 3.383154 24.141518 -8.871540 19.611404 -32.353413 -3.488478 6.369062 -9.240520 -2.143521 4.288286 1.067338 2.870533 8.176112 -10.275489 -5.709454 -1.550532 -46.156055 -17.450592 -36.363216 -94.127350 8.240687 37.503193 8.524705 12.647240 -15.706433 5.831508 6.350754 -0.460990 53.233749 23.097038 51.839069 82.564461 -5.033502 24.227676 -8.534408 -12.637552 31.117048 -16.940945 0.479121 -15.710492 45.406090 -4.218689 -6.725477 -28.759226 -22.338409 -15.164001 -30.459482 -29.791424 23.539082 37.705025 4.818171 5.806613 -29.773823 -14.855463 -5.346604 
0.309240 50.203644 0.984101 6.445149 4.937356 7.957257 23.968121 -8.167113 19.979267 -32.197998 -3.561289 6.387246 -9.341340 -2.405775 3.805753 1.036872 3.030784 7.142435 -10.275489 -5.709454 -1.550532 -47.972977 -18.013199 -35.318050 -94.205421 8.275661 37.547470 8.524705 12.647240 -16.888075 5.831508 6.350754 -0.460990 53.915981 22.534760 53.083584 83.233162 -4.550537 24.753723 -8.534408 -12.637552 31.380720 -17.733566 3.115328 -18.250254 44.085461 -4.335859 -6.580042 -27.580154 -23.743769 -15.626614 -27.159241 -29.224815 23.822674 33.426231 5.111476 5.284888 -27.256107 -11.722083 -3.182785 
